<svg fill="none" height="24" viewBox="0 0 24 24" width="24" xmlns="http://www.w3.org/2000/svg"><g fill="white"><path d="m8 14c-.55228 0-1 .4477-1 1s.44772 1 1 1h8c.5523 0 1-.4477 1-1s-.4477-1-1-1z"/><path d="m5 8h2v2h-2z"/><path d="m7 11h-2v2h2z"/><path d="m8 8h2v2h-2z"/><path d="m10 11h-2v2h2z"/><path d="m11 8h2v2h-2z"/><path d="m13 11h-2v2h2z"/><path d="m14 8h2v2h-2z"/><path d="m16 11h-2v2h2z"/><path d="m17 8h2v2h-2z"/><path d="m19 11h-2v2h2z"/><path clip-rule="evenodd" d="m5 5c-1.65685 0-3 1.34315-3 3v8c0 1.6569 1.34315 3 3 3h14c1.6569 0 3-1.3431 3-3v-8c0-1.65685-1.3431-3-3-3zm-1 3c0-.55228.44772-1 1-1h14c.5523 0 1 .44772 1 1v8c0 .5523-.4477 1-1 1h-14c-.55228 0-1-.4477-1-1z" fill-rule="evenodd"/></g></svg>