<svg xmlns="http://www.w3.org/2000/svg" viewBox="0 0 194.47 75.85"><defs><style>.cls-1{fill:#c4282d;}.cls-2{fill:#fff;}</style></defs><title>Asset 1</title><g id="Layer_2" data-name="Layer 2"><g id="Capa_1" data-name="Capa 1"><g id="g87"><g id="g89"><path id="path91" class="cls-1" d="M160.36,0h19.46l-30,50.5a30.75,30.75,0,0,1-5,6.5,19.94,19.94,0,0,1-4.51,3.31,11,11,0,0,1-3.56,1.2c-1,.11-1.68.17-2.07.17H116.82V18h16.72l.08,30Z"/></g><g id="g93"><rect id="rect95" class="cls-1" y="61.68" width="116.82" height="14.17"/><g id="g97"><path id="path99" class="cls-2" d="M25.15,67.2a.52.52,0,0,0-.13-.52h0a.81.81,0,0,0-.5-.13h-4.1a1.4,1.4,0,0,0-.68.17.66.66,0,0,0-.35.34L19,68.26h3l-.31.84h-3l-.93,2.56h-.84l1.67-4.59a1.93,1.93,0,0,1,.85-1,2.5,2.5,0,0,1,1.32-.39h4.1a1.23,1.23,0,0,1,1,.36A1.2,1.2,0,0,1,26,67.2Z"/><path id="path101" class="cls-2" d="M31.2,68.8a.46.46,0,0,0-.21-.48.56.56,0,0,0-.2-.07l-.23,0h-2a1.58,1.58,0,0,0-.59.12.64.64,0,0,0-.41.33l-1.09,3h-.84l1.55-4.26H28l-.06.18a2.87,2.87,0,0,1,.47-.14,2.34,2.34,0,0,1,.43,0h2a1.44,1.44,0,0,1,.92.29A1,1,0,0,1,32,68.8H31.2Z"/><path id="path103" class="cls-2" d="M38.7,68.65a1.84,1.84,0,0,1-.94,1,2.58,2.58,0,0,1-1.21.31h-2a1.87,1.87,0,0,1-.37,0,2.44,2.44,0,0,1-.42-.13l-.21.57h0c0,.12,0,.22.21.32a.74.74,0,0,0,.23.11,1,1,0,0,0,.24,0h2l.25,0a1.19,1.19,0,0,0,.25-.07,1.2,1.2,0,0,0,.56-.48h.83a2.48,2.48,0,0,1-2.21,1.41H34a1.52,1.52,0,0,1-1-.3.79.79,0,0,1-.26-1l.62-1.71a1.79,1.79,0,0,1,.92-1,2.62,2.62,0,0,1,1.23-.31h2a1.56,1.56,0,0,1,1,.29A.79.79,0,0,1,38.7,68.65Zm-.85,0a.23.23,0,0,0-.12-.29.88.88,0,0,0-.56-.16h-2a1.75,1.75,0,0,0-.58.12.63.63,0,0,0-.42.32c0,.13,0,.23.18.32a1,1,0,0,0,.51.12h2a1.52,1.52,0,0,0,.67-.15A.57.57,0,0,0,37.85,68.67Z"/><path id="path105" class="cls-2" d="M45.33,68.65a1.84,1.84,0,0,1-.94,1,2.58,2.58,0,0,1-1.21.31h-2a1.88,1.88,0,0,1-.37,0,2.41,2.41,0,0,1-.41-.13l-.21.57h0q0,.18.21.32a.75.75,0,0,0,.23.11,1,1,0,0,0,.24,0h2l.25,0a1.17,1.17,0,0,0,.26-.07,1.2,1.2,0,0,0,.56-.48h.83a2.48,2.48,0,0,1-2.2,1.41h-2a1.52,1.52,0,0,1-1-.3.79.79,0,0,1-.26-1L40,68.66a1.79,1.79,0,0,1,.92-1,2.62,2.62,0,0,1,1.23-.31h2a1.56,1.56,0,0,1,1,.29A.79.79,0,0,1,45.33,68.65Zm-.85,0a.23.23,0,0,0-.12-.29.88.88,0,0,0-.56-.16h-2a1.75,1.75,0,0,0-.58.12.63.63,0,0,0-.42.32c0,.13,0,.23.18.32a1,1,0,0,0,.51.12h2a1.52,1.52,0,0,0,.67-.15A.58.58,0,0,0,44.48,68.67Z"/><path id="path107" class="cls-2" d="M58.07,71.27a2.42,2.42,0,0,1-1.31.38H52.65a1.08,1.08,0,0,1-1.16-1.49h.84a.55.55,0,0,0,.14.52h0a.83.83,0,0,0,.5.14h4.11a1.4,1.4,0,0,0,.67-.17.7.7,0,0,0,.36-.35l.25-.68a.29.29,0,0,0-.1-.35.81.81,0,0,0-.56-.17H53.58a1.33,1.33,0,0,1-1-.38.89.89,0,0,1-.15-1l.25-.68a1.93,1.93,0,0,1,.85-1,2.5,2.5,0,0,1,1.32-.39h4.11a1.22,1.22,0,0,1,1,.36,1.2,1.2,0,0,1,.19,1.13h-.84a.55.55,0,0,0-.14-.52h0a.81.81,0,0,0-.5-.13H54.51a1.44,1.44,0,0,0-.69.17.66.66,0,0,0-.35.34l-.25.68a.3.3,0,0,0,.1.35.82.82,0,0,0,.56.17H58a1.29,1.29,0,0,1,1,.38.89.89,0,0,1,.16,1l-.25.68A1.89,1.89,0,0,1,58.07,71.27Z"/><path id="path109" class="cls-2" d="M64.6,71.34a2.55,2.55,0,0,1-1.21.31h-2a1.52,1.52,0,0,1-1-.31.8.8,0,0,1-.24-1l.62-1.71a1.84,1.84,0,0,1,.94-1A2.59,2.59,0,0,1,63,67.37h2a1.52,1.52,0,0,1,1,.29.8.8,0,0,1,.25,1l-.62,1.71A1.84,1.84,0,0,1,64.6,71.34Zm.72-2.68c0-.13,0-.23-.18-.32a1,1,0,0,0-.5-.12h-2a1.63,1.63,0,0,0-.58.11.66.66,0,0,0-.42.33L61,70.37q-.07.19.17.32a1,1,0,0,0,.5.12h2l.28,0a1.51,1.51,0,0,0,.3-.09.66.66,0,0,0,.42-.33Z"/><path id="path111" class="cls-2" d="M68.46,68.22l-1.25,3.43h-.84L68.06,67a1.84,1.84,0,0,1,.82-1,2.56,2.56,0,0,1,1.32-.31l-.3.82a2.55,2.55,0,0,0-.72.19.54.54,0,0,0-.28.26l-.15.4h.84l-.3.84Z"/><path id="path113" class="cls-2" d="M72.27,68.22,71,71.65h-.85l1.25-3.43h-.84l.3-.84h.84l.61-1.68h.85l-.61,1.68h.84l-.3.84Z"/><path id="path115" class="cls-2" d="M78.71,71.32a2.32,2.32,0,0,1-1.21.32,2.21,2.21,0,0,1-.68-.1,1.34,1.34,0,0,1-.54-.32,3.45,3.45,0,0,1-.79.32,2.94,2.94,0,0,1-.77.11,1.33,1.33,0,0,1-1-.31.86.86,0,0,1-.13-1l1.08-3h.84l-1.09,3a.24.24,0,0,0,.12.31,1.07,1.07,0,0,0,.57.13,1.58,1.58,0,0,0,.66-.13.58.58,0,0,0,.35-.32l.67-1.84h.84L77,70.37a.23.23,0,0,0,.12.31,1,1,0,0,0,.56.13,1.6,1.6,0,0,0,.67-.13.57.57,0,0,0,.35-.31l1.09-3h.85l-1.08,3A1.81,1.81,0,0,1,78.71,71.32Z"/><path id="path117" class="cls-2" d="M85.06,71.34a2.64,2.64,0,0,1-1.23.31h-2a1.54,1.54,0,0,1-1-.3.79.79,0,0,1-.22-1,1.8,1.8,0,0,1,.94-1,2.59,2.59,0,0,1,1.21-.31h2a1.9,1.9,0,0,1,.36,0,2.42,2.42,0,0,1,.41.13l.21-.58c0-.12,0-.23-.2-.33a.86.86,0,0,0-.47-.14h-2l-.26,0a1.2,1.2,0,0,0-.82.56h-.84a2.49,2.49,0,0,1,1.07-1.12,2.44,2.44,0,0,1,1.14-.29h2a1.52,1.52,0,0,1,1,.29.79.79,0,0,1,.25,1L86,70.37A1.83,1.83,0,0,1,85.06,71.34Zm.07-1c0-.13,0-.23-.18-.32a1,1,0,0,0-.5-.12h-2a1.59,1.59,0,0,0-.67.15.57.57,0,0,0-.33.29.24.24,0,0,0,.11.29,1,1,0,0,0,.57.15h2a1.59,1.59,0,0,0,.58-.11A.66.66,0,0,0,85.13,70.38Z"/><path id="path119" class="cls-2" d="M92.36,68.8a.46.46,0,0,0-.21-.48.56.56,0,0,0-.2-.07l-.23,0h-2a1.59,1.59,0,0,0-.59.12.64.64,0,0,0-.41.33l-1.09,3H86.8l1.55-4.26h.84l-.06.18a2.9,2.9,0,0,1,.47-.14,2.34,2.34,0,0,1,.43,0h2a1.44,1.44,0,0,1,.92.29,1,1,0,0,1,.25,1.13h-.83Z"/><path id="path121" class="cls-2" d="M99.86,68.65a1.84,1.84,0,0,1-.94,1,2.58,2.58,0,0,1-1.21.31h-2a1.88,1.88,0,0,1-.37,0,2.44,2.44,0,0,1-.41-.13l-.21.57h0q0,.18.21.32a.74.74,0,0,0,.23.11,1,1,0,0,0,.24,0h2l.25,0a1.17,1.17,0,0,0,.26-.07,1.2,1.2,0,0,0,.56-.48h.83a2.48,2.48,0,0,1-2.21,1.41h-2a1.52,1.52,0,0,1-1-.3.79.79,0,0,1-.26-1l.62-1.71a1.79,1.79,0,0,1,.92-1,2.62,2.62,0,0,1,1.23-.31h2a1.56,1.56,0,0,1,1,.29A.78.78,0,0,1,99.86,68.65Zm-.85,0a.23.23,0,0,0-.12-.29.88.88,0,0,0-.56-.16h-2a1.75,1.75,0,0,0-.58.12.63.63,0,0,0-.42.32c0,.13,0,.23.18.32a1,1,0,0,0,.51.12h2a1.52,1.52,0,0,0,.67-.15A.57.57,0,0,0,99,68.67Z"/></g></g><g id="g123"><path id="path125" d="M36.66,51.16A7.33,7.33,0,0,1,32,52.68H15.8a7.13,7.13,0,0,1-4.61-1.49,4.65,4.65,0,0,1-2-3.8V34.75a4.67,4.67,0,0,1,2-3.77,7.33,7.33,0,0,1,4.67-1.51H32.07a6.72,6.72,0,0,1,4.32,1.41,6.79,6.79,0,0,1,2.39,4.44h-3.3a3.08,3.08,0,0,0-1.31-2,4,4,0,0,0-2.12-.5H15.85a4.42,4.42,0,0,0-2.47.66,1.59,1.59,0,0,0-.89,1.33V47.39a1.66,1.66,0,0,0,.89,1.38l0,0a4.29,4.29,0,0,0,2.44.66H32a4.7,4.7,0,0,0,2.25-.53,1.7,1.7,0,0,0,1.18-1.51V42.72H22.31V39.45H38.69v7.94A4.64,4.64,0,0,1,36.66,51.16Z"/><path id="path127" d="M71.27,41.2a7.16,7.16,0,0,1-4.64,1.49H47.09v10h-3.3V34.75a4.67,4.67,0,0,1,2-3.77,7.33,7.33,0,0,1,4.67-1.51H66.63A7.18,7.18,0,0,1,71.25,31a4.65,4.65,0,0,1,2,3.77V37.4A4.65,4.65,0,0,1,71.27,41.2ZM70,34.75a1.63,1.63,0,0,0-.91-1.33,4.38,4.38,0,0,0-2.44-.66H50.41a4.85,4.85,0,0,0-2.23.5,1.6,1.6,0,0,0-1.1,1.49v4.68H66.63a4.5,4.5,0,0,0,2.44-.64A1.66,1.66,0,0,0,70,37.4Z"/><path id="path129" d="M107.82,47.5a5.88,5.88,0,0,1-2.25,3.8,6.92,6.92,0,0,1-4.34,1.38H85a7.31,7.31,0,0,1-4.64-1.49,4.63,4.63,0,0,1-2-3.8V29.49H81.7v17.9a1.66,1.66,0,0,0,.89,1.38l0,0a4.28,4.28,0,0,0,2.44.66h16.22a4.19,4.19,0,0,0,2.14-.53h0a3,3,0,0,0,1.31-2h2.63Z"/></g><g id="g131"><path id="path133" d="M194.47,47.38a4.64,4.64,0,0,1-2,3.8,7,7,0,0,1-4.57,1.49H171.84a6.34,6.34,0,0,1-6.67-5.82h3.27a3.2,3.2,0,0,0,1.28,2h0a4.17,4.17,0,0,0,2.15.53h16.07a4.39,4.39,0,0,0,2.39-.64,1.66,1.66,0,0,0,.9-1.38V44.72a1.63,1.63,0,0,0-.9-1.33,4.34,4.34,0,0,0-2.42-.69h-8.55V39.43h8.58a4.17,4.17,0,0,0,2.39-.66,1.64,1.64,0,0,0,.9-1.35V34.76a1.63,1.63,0,0,0-.9-1.33,4.34,4.34,0,0,0-2.42-.69h-16a4.12,4.12,0,0,0-2.12.53h0a3,3,0,0,0-1.3,2h-3.27a6.47,6.47,0,0,1,2.34-4.41,6.69,6.69,0,0,1,4.33-1.41h16.07A7.15,7.15,0,0,1,192.47,31a4.69,4.69,0,0,1,2,3.8q0,1.94-.16,3.53a2.77,2.77,0,0,1-.53,1.46c-.14.19-.3.4-.49.61a9.53,9.53,0,0,1-.68.69,7.45,7.45,0,0,1,1.17,1.33,3.57,3.57,0,0,1,.53,1.43A35.28,35.28,0,0,1,194.47,47.38Z"/></g></g></g></g></svg>